<?xml version="1.0" standalone="no"?>
<!DOCTYPE svg PUBLIC "-//W3C//DTD SVG 20010904//EN"
 "http://www.w3.org/TR/2001/REC-SVG-20010904/DTD/svg10.dtd">
<svg version="1.0" xmlns="http://www.w3.org/2000/svg"
 width="84.000000pt" height="84.000000pt" viewBox="0 0 84.000000 84.000000"
 preserveAspectRatio="xMidYMid meet">
<metadata>
Created by potrace 1.14, written by Peter Selinger 2001-2017
</metadata>
<g transform="translate(0.000000,84.000000) scale(0.100000,-0.100000)"
fill="#000000" stroke="none">
<path d="M291 790 c-71 -26 -96 -43 -155 -103 -163 -169 -134 -454 60 -588
173 -119 415 -79 539 89 71 96 94 244 56 355 -44 127 -135 213 -270 256 -54
17 -169 13 -230 -9z m205 -52 c48 -32 61 -77 37 -125 -16 -34 -22 -38 -58 -39
-52 -1 -81 -11 -127 -42 l-38 -24 -22 21 c-13 11 -31 27 -41 34 -16 11 -16 16
-3 59 38 129 154 183 252 116z m89 4 c45 -23 93 -62 116 -93 l20 -29 -25 10
c-43 16 -90 -1 -125 -46 -25 -32 -26 -27 -6 23 8 21 13 47 11 58 -3 11 -5 25
-5 32 -1 6 -15 26 -33 44 -30 30 -31 31 -8 24 14 -4 39 -14 55 -23z m-312 -4
c-27 -30 -48 -72 -62 -125 -10 -36 -16 -43 -37 -43 -13 0 -40 -7 -59 -14 -19
-8 -35 -12 -35 -8 0 4 13 30 30 58 31 55 91 112 143 138 42 21 44 20 20 -6z
m420 -140 c12 -6 27 -16 33 -23 17 -17 41 -68 39 -85 -1 -8 -3 -23 -3 -32 -2
-18 -49 -78 -62 -78 -4 0 -14 15 -21 32 -7 18 -33 57 -57 86 -43 53 -43 54
-25 74 31 35 63 44 96 26z m-488 -123 l11 -64 -48 -72 c-26 -40 -48 -79 -48
-86 0 -21 -16 -15 -28 11 -37 81 -45 205 -16 238 17 18 104 50 114 41 3 -3 10
-33 15 -68z m285 67 c0 -4 -29 -39 -64 -77 l-64 -70 -16 39 c-9 22 -15 45 -12
52 11 28 156 80 156 56z m-226 -28 c20 -20 20 -31 0 -51 -13 -14 -17 -14 -25
-2 -12 19 -12 69 0 69 5 0 17 -7 25 -16z m259 -34 c-8 -28 -13 -76 -11 -106
l3 -54 -30 0 c-16 0 -47 11 -69 23 l-38 24 73 81 c41 45 77 82 80 82 4 0 0
-23 -8 -50z m86 -9 c43 -54 64 -106 48 -119 -16 -12 -76 -32 -98 -32 -16 0
-19 8 -19 58 0 62 16 132 30 132 4 0 22 -18 39 -39z m-285 -57 c15 -46 15 -47
-9 -76 l-25 -30 -21 47 -21 47 28 29 c15 16 29 29 30 29 1 0 9 -21 18 -46z
m441 -103 c-29 -89 -96 -170 -173 -210 -22 -12 -23 -11 -13 8 6 11 11 28 11
39 0 11 16 30 38 45 40 26 72 78 72 117 0 13 17 41 38 64 l37 41 3 -28 c2 -15
-4 -50 -13 -76z m-514 17 c20 -39 20 -43 5 -75 -26 -55 -21 -109 13 -144 16
-16 27 -29 25 -29 -17 0 -90 46 -124 79 l-41 39 16 38 c16 39 74 134 81 134 2
0 13 -19 25 -42z m147 -8 c15 -11 47 -24 72 -28 41 -6 47 -11 67 -52 l21 -45
-41 -3 c-57 -5 -105 11 -161 54 l-46 35 20 30 c25 34 32 35 68 9z m272 -15 c0
-26 -28 -71 -54 -89 -25 -16 -26 -16 -46 24 -24 48 -24 50 -2 51 9 0 33 6 52
13 47 18 50 18 50 1z m-276 -117 c22 -11 69 -23 104 -26 57 -4 63 -7 60 -26
-7 -52 -143 -74 -226 -36 -63 29 -80 74 -50 137 l11 22 30 -25 c16 -14 48 -34
71 -46z"/>
</g>
</svg>
