<?xml version="1.0" encoding="UTF-8"?>
<svg xmlns="http://www.w3.org/2000/svg" xmlns:xlink="http://www.w3.org/1999/xlink" viewBox="0 0 104 104" width="104px" height="104px">
<g id="surface48893552">
<path style=" stroke:none;fill-rule:nonzero;fill:rgb(10%,10%,10%);fill-opacity:1;" d="M 84.5 0 L 19.5 0 C 8.734375 0 0 8.734375 0 19.5 L 0 84.5 C 0 95.265625 8.734375 104 19.5 104 L 84.5 104 C 95.265625 104 104 95.265625 104 84.5 L 104 19.5 C 104 8.734375 95.265625 0 84.5 0 Z M 30.078125 68.1875 L 18.484375 68.1875 C 17.78125 68.1875 17.265625 67.859375 16.96875 67.390625 C 16.65625 66.890625 16.640625 66.25 16.96875 65.609375 L 29.296875 43.859375 C 29.296875 43.828125 29.296875 43.8125 29.296875 43.796875 L 21.453125 30.21875 C 21.125 29.578125 21.078125 28.9375 21.375 28.4375 C 21.671875 27.953125 22.265625 27.71875 22.953125 27.71875 L 34.5625 27.71875 C 36.34375 27.71875 37.21875 28.859375 37.78125 29.890625 C 37.78125 29.890625 45.71875 43.71875 45.765625 43.796875 C 45.296875 44.625 33.25 65.9375 33.25 65.9375 C 32.65625 67.015625 31.8125 68.1875 30.078125 68.1875 Z M 86.921875 14.359375 L 61.234375 59.765625 C 61.21875 59.796875 61.21875 59.8125 61.234375 59.84375 L 77.59375 89.71875 C 77.921875 90.375 77.921875 91.015625 77.609375 91.515625 C 77.3125 91.984375 76.78125 92.25 76.078125 92.25 L 64.484375 92.25 C 62.71875 92.25 61.828125 91.078125 61.25 90.046875 C 61.25 90.046875 44.8125 59.890625 44.765625 59.8125 C 45.59375 58.359375 70.578125 14.046875 70.578125 14.046875 C 71.203125 12.921875 71.953125 11.84375 73.6875 11.84375 L 85.40625 11.84375 C 86.09375 11.84375 86.65625 12.09375 86.9375 12.578125 C 87.25 13.0625 87.25 13.71875 86.921875 14.359375 Z M 86.921875 14.359375 "/>
</g>
</svg>
