<?xml version="1.0" encoding="UTF-8"?>
<svg xmlns="http://www.w3.org/2000/svg" xmlns:xlink="http://www.w3.org/1999/xlink" viewBox="0 0 90 90" width="90px" height="90px">
<g id="surface47656984">
<path style=" stroke:none;fill-rule:nonzero;fill:rgb(10%,10%,10%);fill-opacity:1;" d="M 33 10 C 20.332031 10 10 20.332031 10 33 L 10 63 C 10 75.664062 20.332031 86 33 86 L 63 86 C 75.664062 86 86 75.664062 86 63 L 86 33 C 86 20.332031 75.664062 10 63 10 Z M 33 16 L 63 16 C 72.421875 16 80 23.574219 80 33 L 80 63 C 80 72.421875 72.421875 80 63 80 L 33 80 C 23.574219 80 16 72.421875 16 63 L 16 33 C 16 23.574219 23.574219 16 33 16 Z M 68 24 C 65.789062 24 64 25.789062 64 28 C 64 30.210938 65.789062 32 68 32 C 70.210938 32 72 30.210938 72 28 C 72 25.789062 70.210938 24 68 24 Z M 48 28 C 36.992188 28 28 36.992188 28 48 C 28 59.007812 36.992188 68 48 68 C 59.007812 68 68 59.007812 68 48 C 68 36.992188 59.007812 28 48 28 Z M 48 34 C 55.765625 34 62 40.234375 62 48 C 62 55.765625 55.765625 62 48 62 C 40.234375 62 34 55.765625 34 48 C 34 40.234375 40.234375 34 48 34 Z M 48 34 "/>
</g>
</svg>
